<svg xmlns="http://www.w3.org/2000/svg" xml:space="preserve" width="7.11111in" height="7.11111in" version="1.1" style="shape-rendering:geometricPrecision; text-rendering:geometricPrecision; image-rendering:optimizeQuality; fill-rule:evenodd; clip-rule:evenodd" viewBox="0 0 7111 7111" xmlns:xlink="http://www.w3.org/1999/xlink">
 <defs>
  <style type="text/css">
   
    .fil0 {fill:black}
   
  </style>
 </defs>
 <g id="Layer_x0020_1">
  <metadata id="CorelCorpID_0Corel-Layer"></metadata>
  <g id="_564589624">
   <g>
    <g>
     <g>
      <path class="fil0" d="M5823 4800l-4529 0c-214,0 -387,-173 -387,-381l0 -3801c0,-214 173,-387 387,-387l4523 0c214,0 387,173 387,387l0 3795c6,214 -167,387 -381,387zm-4529 -4367c-104,0 -185,81 -185,185l0 3795c0,99 87,179 185,179l4523 0c98,0 185,-80 185,-179l0 -3795c0,-104 -81,-185 -185,-185l-4523 0z" id="id_101" style="fill: rgb(94, 94, 94);"></path>
     </g>
     <g>
      <path class="fil0" d="M6106 1496l-5095 0c-58,0 -104,-46 -104,-104 0,-58 46,-104 104,-104l5101 0c58,0 104,46 104,104 0,58 -52,104 -110,104z" id="id_102" style="fill: rgb(99, 98, 98);"></path>
     </g>
     <g>
      <path class="fil0" d="M1693 959l-249 0c-58,0 -104,-46 -104,-104 0,-58 52,-98 104,-98l249 0c57,0 104,46 104,104 0,57 -47,98 -104,98z" id="id_103" style="fill: rgb(102, 102, 102);"></path>
     </g>
     <g>
      <path class="fil0" d="M2340 959l-249 0c-58,0 -104,-46 -104,-104 0,-58 46,-104 104,-104l249 0c57,0 104,46 104,104 0,58 -47,104 -104,104z" id="id_104" style="fill: rgb(102, 101, 101);"></path>
     </g>
     <g>
      <path class="fil0" d="M2987 959l-249 0c-58,0 -104,-46 -104,-104 0,-58 46,-104 104,-104l249 0c57,0 104,46 104,104 0,58 -52,104 -104,104z" id="id_105" style="fill: rgb(105, 104, 104);"></path>
     </g>
     <g>
      <path class="fil0" d="M6580 6054l-6043 0c-294,0 -531,-237 -531,-531l0 -3871c0,-294 237,-531 531,-531l468 0c58,0 104,46 104,104 0,57 -46,104 -104,104l-468 0c-179,0 -329,150 -329,329l0 3870c0,185 150,330 329,330l6043 0c185,0 329,-151 329,-330l0 -3870c0,-179 -150,-329 -329,-329l-468 0c-58,0 -104,-47 -104,-104 0,-58 46,-104 104,-104l468 0c294,0 531,237 531,531l0 3871c0,294 -243,531 -531,531z" id="id_106" style="fill: rgb(99, 99, 99);"></path>
     </g>
     <g>
      <path class="fil0" d="M6487 5263c-58,0 -104,-47 -104,-104 0,-29 18,-58 35,-81l-6 -3264 -312 0c-58,0 -104,-46 -104,-104 0,-58 46,-104 104,-104l381 0c76,0 133,63 133,139l6 3373c6,87 -58,145 -133,145zm0 -3443l0 0 0 0zm-69 -64c0,0 0,0 0,0l0 0zm-5788 3507c-75,0 -133,-64 -133,-133l-6 -3374c0,-75 64,-139 139,-139l381 0c58,0 104,47 104,104 0,58 -46,104 -104,104l-318 0 6 3270c23,17 35,46 35,75 0,52 -47,93 -104,93zm69 -133l0 0c0,0 0,0 0,0z" id="id_107" style="fill: rgb(102, 100, 100);"></path>
     </g>
     <g>
      <path class="fil0" d="M4575 6880c-40,0 -81,-23 -92,-63l-330 -827c-23,-52 6,-109 58,-132 52,-24 110,5 133,57l329 826c23,52 -5,110 -57,133 -12,0 -29,6 -41,6zm-2033 0c-12,0 -23,0 -35,-6 -52,-23 -75,-81 -58,-133l330 -826c23,-52 80,-75 132,-57 52,23 76,80 58,132l-329 826c-23,35 -64,64 -98,64z" id="id_108" style="fill: rgb(110, 108, 108);"></path>
     </g>
     <g>
      <path class="fil0" d="M7007 5263l-6903 0c-58,0 -104,-47 -104,-104 0,-58 46,-104 104,-104l6903 0c58,0 104,46 104,104 0,57 -46,104 -104,104z" id="id_109" style="fill: rgb(107, 107, 107);"></path>
     </g>
     <g>
      <path class="fil0" d="M5320 6880l-3523 0c-58,0 -104,-46 -104,-104 0,-58 46,-104 104,-104l3523 0c58,0 104,46 104,104 0,58 -46,104 -104,104z" id="id_110" style="fill: rgb(102, 100, 100);"></path>
     </g>
    </g>
    <g>
     <g>
      <path class="fil0" d="M3558 4136c-537,0 -970,-433 -970,-970 0,-538 433,-977 970,-977 538,0 971,439 971,977 0,537 -433,970 -971,970zm0 -1739c-421,0 -768,347 -768,774 0,422 347,769 768,769 422,0 769,-347 769,-769 0,-427 -347,-774 -769,-774z" id="id_111" style="fill: rgb(105, 103, 103);"></path>
     </g>
     <g>
      <path class="fil0" d="M3547 3732c-156,0 -283,-58 -358,-168 -29,-46 -18,-110 29,-138 46,-29 109,-18 138,28 46,70 139,76 191,76 23,0 196,-6 196,-133 0,-70 -46,-99 -208,-133 -127,-35 -364,-93 -364,-335 0,-197 168,-335 399,-335 156,0 283,58 358,167 29,46 17,110 -29,139 -46,29 -109,17 -138,-29 -47,-69 -139,-75 -191,-75 -23,0 -196,6 -196,133 0,75 63,98 213,138 116,29 364,81 364,330 -6,202 -167,335 -404,335z" id="id_112" style="fill: rgb(117, 115, 115);"></path>
     </g>
     <g>
      <path class="fil0" d="M3558 3922c-57,0 -104,-46 -104,-104l0 -184c0,-58 47,-104 104,-104 58,0 104,46 104,104l0 184c-5,58 -46,104 -104,104zm0 -1126c-57,0 -104,-46 -104,-104l0 -185c0,-58 47,-104 104,-104 58,0 104,46 104,104l0 185c-5,63 -46,104 -104,104z" id="id_113" style="fill: rgb(115, 111, 111);"></path>
     </g>
     <g>
      <path class="fil0" d="M3558 4390c-675,0 -1230,-548 -1230,-1224 0,-676 549,-1231 1230,-1231 682,0 1231,555 1231,1231 0,676 -555,1224 -1231,1224zm0 -2247c-566,0 -1028,462 -1028,1028 0,567 462,1023 1028,1023 567,0 1029,-456 1029,-1023 0,-571 -462,-1028 -1029,-1028z" id="id_114" style="fill: rgb(110, 110, 110);"></path>
     </g>
    </g>
    <g>
     <g>
      <g>
       <path class="fil0" d="M2542 2068l-1167 0c-58,0 -104,-46 -104,-104 0,-58 46,-104 104,-104l1167 0c58,0 104,46 104,104 0,58 -52,104 -104,104z" id="id_115" style="fill: rgb(115, 110, 110);"></path>
      </g>
      <g>
       <path class="fil0" d="M2057 2784l-682 0c-58,0 -104,-46 -104,-104 0,-57 46,-104 104,-104l682 0c57,0 103,47 103,104 0,58 -46,104 -103,104z" id="id_116" style="fill: rgb(115, 113, 113);"></path>
      </g>
      <g>
       <path class="fil0" d="M2057 3512l-682 0c-58,0 -104,-46 -104,-104 0,-58 46,-104 104,-104l682 0c57,0 103,46 103,104 0,58 -46,104 -103,104z" id="id_117" style="fill: rgb(107, 105, 105);"></path>
      </g>
      <g>
       <path class="fil0" d="M2467 4229l-1092 0c-58,0 -104,-47 -104,-104 0,-58 46,-104 104,-104l1092 0c57,0 104,46 104,104 0,57 -52,104 -104,104z" id="id_118" style="fill: rgb(110, 107, 107);"></path>
      </g>
     </g>
     <g>
      <g>
       <path class="fil0" d="M5742 2068l-1167 0c-58,0 -104,-46 -104,-104 0,-58 46,-104 104,-104l1167 0c58,0 104,46 104,104 0,58 -46,104 -104,104z" id="id_119" style="fill: rgb(115, 111, 111);"></path>
      </g>
      <g>
       <path class="fil0" d="M5742 2784l-682 0c-57,0 -104,-46 -104,-104 0,-57 47,-104 104,-104l682 0c58,0 104,47 104,104 0,58 -46,104 -104,104z" id="id_120" style="fill: rgb(105, 103, 103);"></path>
      </g>
      <g>
       <path class="fil0" d="M5742 3512l-682 0c-57,0 -104,-46 -104,-104 0,-58 47,-104 104,-104l682 0c58,0 104,46 104,104 0,58 -46,104 -104,104z" id="id_121" style="fill: rgb(105, 102, 102);"></path>
      </g>
      <g>
       <path class="fil0" d="M5742 4229l-1092 0c-58,0 -104,-47 -104,-104 0,-58 46,-104 104,-104l1092 0c58,0 104,46 104,104 0,57 -46,104 -104,104z" id="id_122" style="fill: rgb(107, 107, 107);"></path>
      </g>
     </g>
    </g>
   </g>
  </g>
 </g>
</svg>