<svg xmlns="http://www.w3.org/2000/svg" xml:space="preserve" width="1.70666in" height="1.70666in" version="1.1" style="shape-rendering:geometricPrecision; text-rendering:geometricPrecision; image-rendering:optimizeQuality; fill-rule:evenodd; clip-rule:evenodd" viewBox="0 0 1707 1707" xmlns:xlink="http://www.w3.org/1999/xlink">
 <defs>
  <style type="text/css">
   
    .fil0 {fill:black}
   
  </style>
 </defs>
 <g id="Layer_x0020_1">
  <metadata id="CorelCorpID_0Corel-Layer"></metadata>
  <g id="_488285784">
   <g>
    <g>
     <g>
      <path className="fil0" d="M963 1705l-218 0c-14,0 -25,-11 -25,-25l0 -97c-104,-19 -202,-59 -288,-119l-69 70c-10,9 -25,9 -35,0l-153 -154c-10,-10 -10,-25 0,-35l69 -69c-61,-86 -103,-186 -121,-288l-97 0c-14,0 -25,-11 -25,-25l0 -110c0,-14 11,-25 25,-25l561 0c14,0 25,11 25,25 0,14 -11,25 -25,25l-537 0 0 61 94 0c13,0 22,9 24,21 16,109 59,215 126,305 7,9 7,23 -3,32l-67 66 121 121 66 -67c9,-8 23,-10 32,-3 89,65 194,110 305,126 13,2 21,13 21,24l0 93 170 0 0 -93c0,-12 9,-22 21,-24 109,-16 215,-61 305,-126 9,-7 23,-5 32,3l66 67 121 -121 -67 -66c-8,-9 -10,-23 -3,-32 65,-89 110,-194 126,-305 2,-12 13,-21 24,-21l93 0 0 -61 -536 0c-14,0 -25,-11 -25,-25 0,-14 11,-25 25,-25l561 0c14,0 25,11 25,25l0 110c0,14 -11,25 -25,25l-97 0c-20,104 -60,202 -119,288l69 69c4,4 7,11 7,17 0,5 -3,12 -7,16l-155 156c-10,9 -25,9 -35,0l-69 -70c-86,60 -184,101 -288,119l0 97c0,14 -11,25 -25,25z" id="id_110" style="fill: rgb(112, 110, 110);"></path>
     </g>
     <g>
      <path className="fil0" d="M853 1273c-231,0 -419,-188 -419,-420 0,-14 11,-25 25,-25 13,0 24,11 24,25 0,205 167,372 372,372 205,0 372,-167 372,-372 0,-14 11,-25 25,-25 14,0 25,11 25,25 -3,232 -191,420 -424,420z" id="id_111" style="fill: rgb(112, 111, 111);"></path>
     </g>
     <g>
      <path className="fil0" d="M853 1144c-160,0 -291,-130 -291,-291 0,-14 12,-25 25,-25 14,0 25,11 25,25 0,135 108,243 243,243 134,0 242,-110 242,-243 0,-14 11,-25 25,-25 14,0 25,11 25,25 -3,161 -133,291 -294,291z" id="id_112" style="fill: rgb(115, 115, 115);"></path>
     </g>
    </g>
    <g>
     <path className="fil0" d="M1564 878c-14,0 -25,-11 -25,-25 0,-347 -259,-640 -604,-681 -30,-3 -57,-4 -82,-4 -30,0 -63,2 -97,8 -335,47 -587,338 -587,677 0,14 -11,25 -25,25 -14,0 -25,-11 -25,-25 2,-363 272,-674 630,-726 36,-5 71,-8 104,-8 27,0 56,2 88,6 0,0 0,0 0,0 368,44 647,357 647,728 0,14 -12,25 -24,25z" id="id_113" style="fill: rgb(107, 105, 105);"></path>
    </g>
    <g>
     <path className="fil0" d="M853 330c-14,0 -25,-11 -25,-25l0 -86c0,-14 11,-25 25,-25 14,0 25,11 25,25l0 86c0,14 -11,25 -25,25z" id="id_114" style="fill: rgb(105, 104, 104);"></path>
    </g>
    <g>
     <path className="fil0" d="M1128 405c-5,0 -9,-2 -13,-3 -11,-7 -15,-21 -8,-34l43 -74c7,-11 21,-16 33,-9 11,7 15,21 8,34l-43 74c-4,6 -12,12 -20,12z" id="id_115" style="fill: rgb(107, 105, 105);"></path>
    </g>
    <g>
     <path className="fil0" d="M1328 604c-8,0 -16,-4 -20,-12 -7,-12 -3,-27 8,-34l75 -43c11,-7 26,-2 33,9 7,11 3,26 -8,33l-75 43c-4,4 -8,4 -13,4z" id="id_116" style="fill: rgb(99, 97, 97);"></path>
    </g>
    <g>
     <path className="fil0" d="M380 604c-5,0 -9,-1 -13,-3l-75 -43c-11,-7 -15,-21 -8,-33 7,-12 22,-15 33,-8l75 43c11,7 15,20 8,33 -4,7 -12,11 -20,11z" id="id_117" style="fill: rgb(102, 102, 102);"></path>
    </g>
    <g>
     <path className="fil0" d="M580 405c-8,0 -16,-5 -20,-13l-43 -75c-7,-11 -3,-26 8,-33 11,-7 26,-3 33,8l43 75c7,11 3,26 -8,33 -4,3 -8,5 -13,5z" id="id_118" style="fill: rgb(97, 96, 96);"></path>
    </g>
    <g>
     <path className="fil0" d="M853 988c-59,0 -108,-49 -108,-110 0,-61 49,-109 108,-109 60,0 110,48 110,109 0,61 -50,110 -110,110zm0 -169c-33,0 -59,27 -59,61 0,33 26,61 59,61 34,0 61,-28 61,-61 0,-34 -27,-61 -61,-61z" id="id_119" style="fill: rgb(102, 100, 100);"></path>
    </g>
    <g>
     <path className="fil0" d="M923 853c-6,0 -13,-2 -17,-7 -10,-9 -10,-25 0,-34l176 -176c10,-10 25,-10 35,0 9,10 9,25 0,34l-176 176c-6,6 -11,7 -18,7z" id="id_120" style="fill: rgb(94, 91, 91);"></path>
    </g>
    <g>
     <path className="fil0" d="M853 819c-14,0 -25,-11 -25,-25l0 -369c0,-14 11,-25 25,-25 14,0 25,11 25,25l0 370c0,13 -11,24 -25,24z" id="id_121" style="fill: rgb(102, 102, 102);"></path>
    </g>
    <g>
     <path className="fil0" d="M1682 878c-14,0 -25,-11 -25,-25 0,-407 -305,-749 -708,-798 0,0 0,0 0,0 -31,-4 -62,-5 -96,-5 -38,0 -76,3 -113,8 -394,57 -690,398 -690,795 0,14 -11,25 -25,25 -14,0 -25,-11 -25,-25 1,-421 316,-784 733,-842 40,-5 80,-10 120,-10 35,0 70,2 101,6 429,51 751,414 751,846 0,14 -11,25 -23,25z" id="id_122" style="fill: rgb(94, 93, 93);"></path>
    </g>
   </g>
  </g>
 </g>
</svg>