<svg id="line" xmlns="http://www.w3.org/2000/svg" viewBox="0 0 64 64"><title>1</title><path d="M37.30176,54.7832a1.0001,1.0001,0,0,0-.00005-2H26.69824a1.0001,1.0001,0,0,0,.00005,2Z" id="id_101" style="fill: rgb(102, 101, 101);"></path><path d="M51.78027,17.61035H49.96973V9a5.00589,5.00589,0,0,0-5-5c-1.28414.00291-4.35257-.0021-5.66993,0a1.00015,1.00015,0,0,0,.00006,2h2.19135l-.4248,1.56348a3.01868,3.01868,0,0,1-2.89649,2.21679H25.83008a3.01768,3.01768,0,0,1-2.89551-2.21289L22.50879,6h12.791a1.00012,1.00012,0,0,0,0-2H19.03027a5.00589,5.00589,0,0,0-5,5v8.61035H12.21973a3.00328,3.00328,0,0,0-3,3v17.46a3.00328,3.00328,0,0,0,3,3h1.81054v3.08008a1,1,0,0,0,2,0V41.07031H27.01953a.90784.90784,0,0,1,.76074.39746l3.38965,5.04981a1.0072,1.0072,0,0,0,1.66016,0l3.38672-5.04489a.90928.90928,0,0,1,.76367-.40235H47.96973V55a3.00328,3.00328,0,0,1-3,3H19.03027a3.00328,3.00328,0,0,1-3-3V48.15039a1.0001,1.0001,0,0,0-2,0V55a5.00589,5.00589,0,0,0,5,5H44.96973a5.00589,5.00589,0,0,0,5-5V41.07031h1.81054a3.00328,3.00328,0,0,0,3-3v-17.46A3.00328,3.00328,0,0,0,51.78027,17.61035Zm1,20.46a1.00067,1.00067,0,0,1-1,1H36.98047a2.92115,2.92115,0,0,0-2.4209,1.28223L32,44.166l-2.56251-3.81836a2.91969,2.91969,0,0,0-2.418-1.27735H12.21973a1.00067,1.00067,0,0,1-1-1v-17.46a.98961.98961,0,0,1,1-1H40.7998a1,1,0,0,0,0-2H16.03027V9a3.00328,3.00328,0,0,1,3-3h1.40552l.57007,2.09668a5.02388,5.02388,0,0,0,4.82422,3.68359H38.16992a5.02488,5.02488,0,0,0,4.8252-3.6875L43.56415,6h1.40558a3.00328,3.00328,0,0,1,3,3v8.61035H44.7998a1,1,0,0,0,0,2h6.98047a.98961.98961,0,0,1,1,1Z" id="id_102" style="fill: rgb(99, 97, 97);"></path><path d="M37.6416,29.33008v-1.9209a5.66464,5.66464,0,0,0-5.64169-5.71181c-2.14985-.11246-5.79778,1.90834-5.6414,5.71192l-.00011,1.90126a4.82886,4.82886,0,0,1-.93652,2.459c-.83631,1.18383-.74491,2.77235,1.538,3.44047a9.09093,9.09093,0,0,0,1.59218.354,3.47651,3.47651,0,0,0,6.89087.00274A9.161,9.161,0,0,0,37.04,35.21c2.28678-.66615,2.36986-2.26019,1.54012-3.43747A4.849,4.849,0,0,1,37.6416,29.33008Zm-5.63867,7.24805a1.49652,1.49652,0,0,1-1.33563-.83149c.40722.015.8374.02405,1.31708.018.44722.008.92079.00284,1.342-.01313A1.48463,1.48463,0,0,1,32.00293,36.57813Zm4.50781-3.29688a13.28977,13.28977,0,0,1-4.52637.48339c-3.87188-.05923-3.884-.31468-5.03612-.67468,2.233-3.38986,1.00363-4.05569,1.5459-6.797a3.654,3.654,0,0,1,7.14742,1.11615l0,1.93267A6.77559,6.77559,0,0,0,36.9707,32.959C37.14635,33.12511,36.86065,33.16676,36.51074,33.28125Z" id="id_103" style="fill: rgb(107, 105, 105);"></path><path d="M20.46582,22.86133a1.00015,1.00015,0,0,0-1.10932,1.66409c.54825.30295,2.46042,1.81605,2.87,1.71192a1.00606,1.00606,0,0,0,.55564-1.83208Z" id="id_104" style="fill: rgb(105, 103, 103);"></path><path d="M21.67285,30.39551l-2.3164,1.54492a1.006,1.006,0,0,0,.55572,1.832c.39161.11446,2.36547-1.43766,2.87009-1.71284A1.0002,1.0002,0,0,0,21.67285,30.39551Z" id="id_105" style="fill: rgb(112, 112, 112);"></path><path d="M21.51465,29.23242a1.0001,1.0001,0,0,0,0-2H19.19824a1.0001,1.0001,0,0,0,.00005,2Z" id="id_106" style="fill: rgb(102, 102, 102);"></path><path d="M41.77344,26.2373a.99942.99942,0,0,0,.55371-.168l2.3164-1.54395a1,1,0,1,0-1.10937-1.66406l-2.31641,1.54394A1.006,1.006,0,0,0,41.77344,26.2373Z" id="id_107" style="fill: rgb(110, 110, 110);"></path><path d="M42.32715,30.39551a1.00016,1.00016,0,0,0-1.10932,1.66409c.55391.3069,2.46009,1.81706,2.87,1.7129a1.006,1.006,0,0,0,.55564-1.83208Z" id="id_108" style="fill: rgb(110, 107, 107);"></path><path d="M44.80176,27.23242H42.48535a1.0001,1.0001,0,0,0,0,2h2.31637A1.0001,1.0001,0,0,0,44.80176,27.23242Z" id="id_109" style="fill: rgb(105, 105, 105);"></path></svg>