<svg xmlns="http://www.w3.org/2000/svg" version="1.1" xmlns:xlink="http://www.w3.org/1999/xlink" xmlns:svgjs="http://svgjs.dev/svgjs" width="1440" height="560" preserveAspectRatio="none" viewBox="0 0 1440 560"><g mask="url(&quot;#SvgjsMask1002&quot;)" fill="none"><path d="M625.72 570.98C776.62 538.42 845.58 144.18 1071.49 143.69 1297.39 143.2 1386.13 412.4 1517.25 423.69" stroke="rgba(112, 82, 146, 1)" stroke-width="2"></path><path d="M461.08 629.2C609.5 587.31 646.62 181.13 874.88 171.69 1103.14 162.25 1081.78 241.69 1288.67 241.69 1495.57 241.69 1597.55 171.94 1702.47 171.69" stroke="rgba(112, 82, 146, 1)" stroke-width="2"></path><path d="M140.69 563.75C336.7 551.31 482.06 183.28 827.88 183.03 1173.7 182.78 1334.4 404.23 1515.07 407.03" stroke="rgba(112, 82, 146, 1)" stroke-width="2"></path><path d="M651.59 639.82C752.54 611.61 683.04 352.58 933.69 329.64 1184.35 306.7 1345.15 99.09 1497.9 94.44" stroke="rgba(112, 82, 146, 1)" stroke-width="2"></path><path d="M313.03 575.17C502.45 566.13 625.88 249.2 992.86 238.65 1359.84 228.1 1494.2 22.91 1672.69 20.25" stroke="rgba(112, 82, 146, 1)" stroke-width="2"></path></g><defs><mask id="SvgjsMask1002"><rect width="1440" height="560" fill="#ffffff"></rect></mask></defs></svg>