<svg xmlns="http://www.w3.org/2000/svg" version="1.1" xmlns:xlink="http://www.w3.org/1999/xlink" xmlns:svgjs="http://svgjs.dev/svgjs" width="1440" height="574" preserveAspectRatio="none" viewBox="0 0 1440 574"><g mask="url(&quot;#SvgjsMask1004&quot;)" fill="none"><rect width="1440" height="574" x="0" y="0" fill="rgba(65, 103, 143, 0.17)"></rect><path d="M-44.95 556.69L-44.95 556.69" stroke="rgba(112, 82, 146, 0.24)" stroke-width="1.5"></path><path d="M-44.95 556.69L-64.05 686.54" stroke="rgba(112, 82, 146, 0.24)" stroke-width="1.5"></path><path d="M-44.95 556.69L96.1 661.88" stroke="rgba(112, 82, 146, 0.24)" stroke-width="1.5"></path><path d="M-44.95 556.69L92.44 392.07" stroke="rgba(112, 82, 146, 0.24)" stroke-width="1.5"></path><path d="M-64.05 686.54L-64.05 686.54" stroke="rgba(112, 82, 146, 0.24)" stroke-width="1.5"></path><path d="M-64.05 686.54L96.1 661.88" stroke="rgba(112, 82, 146, 0.24)" stroke-width="1.5"></path><path d="M-64.05 686.54L211.15 649.91" stroke="rgba(112, 82, 146, 0.24)" stroke-width="1.5"></path><path d="M-64.05 686.54L92.44 392.07" stroke="rgba(112, 82, 146, 0.24)" stroke-width="1.5"></path><path d="M92.44 392.07L92.44 392.07" stroke="rgba(112, 82, 146, 0.24)" stroke-width="1.5"></path><path d="M92.44 392.07L226.77 365.58" stroke="rgba(112, 82, 146, 0.24)" stroke-width="1.5"></path><path d="M92.44 392.07L259.13 517.53" stroke="rgba(112, 82, 146, 0.24)" stroke-width="1.5"></path><path d="M96.1 661.88L96.1 661.88" stroke="rgba(112, 82, 146, 0.24)" stroke-width="1.5"></path><path d="M96.1 661.88L211.15 649.91" stroke="rgba(112, 82, 146, 0.24)" stroke-width="1.5"></path><path d="M226.77 365.58L226.77 365.58" stroke="rgba(112, 82, 146, 0.24)" stroke-width="1.5"></path><path d="M226.77 365.58L354.27 352.43" stroke="rgba(112, 82, 146, 0.24)" stroke-width="1.5"></path><path d="M259.13 517.53L259.13 517.53" stroke="rgba(112, 82, 146, 0.24)" stroke-width="1.5"></path><path d="M259.13 517.53L362.61 515.56" stroke="rgba(112, 82, 146, 0.24)" stroke-width="1.5"></path><path d="M211.15 649.91L211.15 649.91" stroke="rgba(112, 82, 146, 0.24)" stroke-width="1.5"></path><path d="M211.15 649.91L259.13 517.53" stroke="rgba(112, 82, 146, 0.24)" stroke-width="1.5"></path><path d="M211.15 649.91L409.84 638.17" stroke="rgba(112, 82, 146, 0.24)" stroke-width="1.5"></path><path d="M211.15 649.91L362.61 515.56" stroke="rgba(112, 82, 146, 0.24)" stroke-width="1.5"></path><path d="M354.27 352.43L354.27 352.43" stroke="rgba(112, 82, 146, 0.24)" stroke-width="1.5"></path><path d="M354.27 352.43L503.74 382.09" stroke="rgba(112, 82, 146, 0.24)" stroke-width="1.5"></path><path d="M354.27 352.43L362.61 515.56" stroke="rgba(112, 82, 146, 0.24)" stroke-width="1.5"></path><path d="M354.27 352.43L259.13 517.53" stroke="rgba(112, 82, 146, 0.24)" stroke-width="1.5"></path><path d="M354.27 352.43L496.91 525.64" stroke="rgba(112, 82, 146, 0.24)" stroke-width="1.5"></path><path d="M354.27 352.43L92.44 392.07" stroke="rgba(112, 82, 146, 0.24)" stroke-width="1.5"></path><path d="M362.61 515.56L362.61 515.56" stroke="rgba(112, 82, 146, 0.24)" stroke-width="1.5"></path><path d="M362.61 515.56L409.84 638.17" stroke="rgba(112, 82, 146, 0.24)" stroke-width="1.5"></path><path d="M362.61 515.56L496.91 525.64" stroke="rgba(112, 82, 146, 0.24)" stroke-width="1.5"></path><path d="M362.61 515.56L503.74 382.09" stroke="rgba(112, 82, 146, 0.24)" stroke-width="1.5"></path><path d="M362.61 515.56L226.77 365.58" stroke="rgba(112, 82, 146, 0.24)" stroke-width="1.5"></path><path d="M409.84 638.17L409.84 638.17" stroke="rgba(112, 82, 146, 0.24)" stroke-width="1.5"></path><path d="M409.84 638.17L534.36 697.16" stroke="rgba(112, 82, 146, 0.24)" stroke-width="1.5"></path><path d="M503.74 382.09L503.74 382.09" stroke="rgba(112, 82, 146, 0.24)" stroke-width="1.5"></path><path d="M503.74 382.09L496.91 525.64" stroke="rgba(112, 82, 146, 0.24)" stroke-width="1.5"></path><path d="M503.74 382.09L692.23 255.53" stroke="rgba(112, 82, 146, 0.24)" stroke-width="1.5"></path><path d="M503.74 382.09L677.05 532.97" stroke="rgba(112, 82, 146, 0.24)" stroke-width="1.5"></path><path d="M496.91 525.64L496.91 525.64" stroke="rgba(112, 82, 146, 0.24)" stroke-width="1.5"></path><path d="M496.91 525.64L409.84 638.17" stroke="rgba(112, 82, 146, 0.24)" stroke-width="1.5"></path><path d="M534.36 697.16L534.36 697.16" stroke="rgba(112, 82, 146, 0.24)" stroke-width="1.5"></path><path d="M534.36 697.16L496.91 525.64" stroke="rgba(112, 82, 146, 0.24)" stroke-width="1.5"></path><path d="M534.36 697.16L677.05 532.97" stroke="rgba(112, 82, 146, 0.24)" stroke-width="1.5"></path><path d="M692.23 255.53L692.23 255.53" stroke="rgba(112, 82, 146, 0.24)" stroke-width="1.5"></path><path d="M692.23 255.53L827.48 211.35" stroke="rgba(112, 82, 146, 0.24)" stroke-width="1.5"></path><path d="M692.23 255.53L815.56 409.35" stroke="rgba(112, 82, 146, 0.24)" stroke-width="1.5"></path><path d="M677.05 532.97L677.05 532.97" stroke="rgba(112, 82, 146, 0.24)" stroke-width="1.5"></path><path d="M677.05 532.97L838.9 536.76" stroke="rgba(112, 82, 146, 0.24)" stroke-width="1.5"></path><path d="M677.05 532.97L496.91 525.64" stroke="rgba(112, 82, 146, 0.24)" stroke-width="1.5"></path><path d="M827.48 211.35L827.48 211.35" stroke="rgba(112, 82, 146, 0.24)" stroke-width="1.5"></path><path d="M827.48 211.35L950.56 217.25" stroke="rgba(112, 82, 146, 0.24)" stroke-width="1.5"></path><path d="M827.48 211.35L963.33 83.48" stroke="rgba(112, 82, 146, 0.24)" stroke-width="1.5"></path><path d="M827.48 211.35L815.56 409.35" stroke="rgba(112, 82, 146, 0.24)" stroke-width="1.5"></path><path d="M815.56 409.35L815.56 409.35" stroke="rgba(112, 82, 146, 0.24)" stroke-width="1.5"></path><path d="M815.56 409.35L838.9 536.76" stroke="rgba(112, 82, 146, 0.24)" stroke-width="1.5"></path><path d="M815.56 409.35L943.57 381.83" stroke="rgba(112, 82, 146, 0.24)" stroke-width="1.5"></path><path d="M815.56 409.35L938.32 502.48" stroke="rgba(112, 82, 146, 0.24)" stroke-width="1.5"></path><path d="M815.56 409.35L677.05 532.97" stroke="rgba(112, 82, 146, 0.24)" stroke-width="1.5"></path><path d="M838.9 536.76L838.9 536.76" stroke="rgba(112, 82, 146, 0.24)" stroke-width="1.5"></path><path d="M838.9 536.76L938.32 502.48" stroke="rgba(112, 82, 146, 0.24)" stroke-width="1.5"></path><path d="M838.9 536.76L832.23 706.08" stroke="rgba(112, 82, 146, 0.24)" stroke-width="1.5"></path><path d="M838.9 536.76L943.57 381.83" stroke="rgba(112, 82, 146, 0.24)" stroke-width="1.5"></path><path d="M838.9 536.76L975.2 679.72" stroke="rgba(112, 82, 146, 0.24)" stroke-width="1.5"></path><path d="M832.23 706.08L832.23 706.08" stroke="rgba(112, 82, 146, 0.24)" stroke-width="1.5"></path><path d="M832.23 706.08L975.2 679.72" stroke="rgba(112, 82, 146, 0.24)" stroke-width="1.5"></path><path d="M832.23 706.08L938.32 502.48" stroke="rgba(112, 82, 146, 0.24)" stroke-width="1.5"></path><path d="M832.23 706.08L677.05 532.97" stroke="rgba(112, 82, 146, 0.24)" stroke-width="1.5"></path><path d="M832.23 706.08L1118.15 663.07" stroke="rgba(112, 82, 146, 0.24)" stroke-width="1.5"></path><path d="M973.25 -72.2L973.25 -72.2" stroke="rgba(112, 82, 146, 0.24)" stroke-width="1.5"></path><path d="M973.25 -72.2L963.33 83.48" stroke="rgba(112, 82, 146, 0.24)" stroke-width="1.5"></path><path d="M973.25 -72.2L1134.96 -72.84" stroke="rgba(112, 82, 146, 0.24)" stroke-width="1.5"></path><path d="M973.25 -72.2L1113.25 65.75" stroke="rgba(112, 82, 146, 0.24)" stroke-width="1.5"></path><path d="M973.25 -72.2L1243.35 -70.05" stroke="rgba(112, 82, 146, 0.24)" stroke-width="1.5"></path><path d="M973.25 -72.2L950.56 217.25" stroke="rgba(112, 82, 146, 0.24)" stroke-width="1.5"></path><path d="M973.25 -72.2L827.48 211.35" stroke="rgba(112, 82, 146, 0.24)" stroke-width="1.5"></path><path d="M963.33 83.48L963.33 83.48" stroke="rgba(112, 82, 146, 0.24)" stroke-width="1.5"></path><path d="M963.33 83.48L950.56 217.25" stroke="rgba(112, 82, 146, 0.24)" stroke-width="1.5"></path><path d="M963.33 83.48L1113.25 65.75" stroke="rgba(112, 82, 146, 0.24)" stroke-width="1.5"></path><path d="M963.33 83.48L1160.97 198.15" stroke="rgba(112, 82, 146, 0.24)" stroke-width="1.5"></path><path d="M963.33 83.48L1134.96 -72.84" stroke="rgba(112, 82, 146, 0.24)" stroke-width="1.5"></path><path d="M950.56 217.25L950.56 217.25" stroke="rgba(112, 82, 146, 0.24)" stroke-width="1.5"></path><path d="M950.56 217.25L943.57 381.83" stroke="rgba(112, 82, 146, 0.24)" stroke-width="1.5"></path><path d="M950.56 217.25L1099.94 342.3" stroke="rgba(112, 82, 146, 0.24)" stroke-width="1.5"></path><path d="M943.57 381.83L943.57 381.83" stroke="rgba(112, 82, 146, 0.24)" stroke-width="1.5"></path><path d="M943.57 381.83L938.32 502.48" stroke="rgba(112, 82, 146, 0.24)" stroke-width="1.5"></path><path d="M943.57 381.83L1099.94 342.3" stroke="rgba(112, 82, 146, 0.24)" stroke-width="1.5"></path><path d="M938.32 502.48L938.32 502.48" stroke="rgba(112, 82, 146, 0.24)" stroke-width="1.5"></path><path d="M938.32 502.48L975.2 679.72" stroke="rgba(112, 82, 146, 0.24)" stroke-width="1.5"></path><path d="M938.32 502.48L1139.97 551.01" stroke="rgba(112, 82, 146, 0.24)" stroke-width="1.5"></path><path d="M975.2 679.72L975.2 679.72" stroke="rgba(112, 82, 146, 0.24)" stroke-width="1.5"></path><path d="M975.2 679.72L1118.15 663.07" stroke="rgba(112, 82, 146, 0.24)" stroke-width="1.5"></path><path d="M1134.96 -72.84L1134.96 -72.84" stroke="rgba(112, 82, 146, 0.24)" stroke-width="1.5"></path><path d="M1134.96 -72.84L1243.35 -70.05" stroke="rgba(112, 82, 146, 0.24)" stroke-width="1.5"></path><path d="M1134.96 -72.84L1113.25 65.75" stroke="rgba(112, 82, 146, 0.24)" stroke-width="1.5"></path><path d="M1134.96 -72.84L1243.4 112.23" stroke="rgba(112, 82, 146, 0.24)" stroke-width="1.5"></path><path d="M1113.25 65.75L1113.25 65.75" stroke="rgba(112, 82, 146, 0.24)" stroke-width="1.5"></path><path d="M1113.25 65.75L1243.4 112.23" stroke="rgba(112, 82, 146, 0.24)" stroke-width="1.5"></path><path d="M1113.25 65.75L1160.97 198.15" stroke="rgba(112, 82, 146, 0.24)" stroke-width="1.5"></path><path d="M1160.97 198.15L1160.97 198.15" stroke="rgba(112, 82, 146, 0.24)" stroke-width="1.5"></path><path d="M1160.97 198.15L1263.24 199.84" stroke="rgba(112, 82, 146, 0.24)" stroke-width="1.5"></path><path d="M1160.97 198.15L1243.4 112.23" stroke="rgba(112, 82, 146, 0.24)" stroke-width="1.5"></path><path d="M1160.97 198.15L1099.94 342.3" stroke="rgba(112, 82, 146, 0.24)" stroke-width="1.5"></path><path d="M1099.94 342.3L1099.94 342.3" stroke="rgba(112, 82, 146, 0.24)" stroke-width="1.5"></path><path d="M1139.97 551.01L1139.97 551.01" stroke="rgba(112, 82, 146, 0.24)" stroke-width="1.5"></path><path d="M1139.97 551.01L1118.15 663.07" stroke="rgba(112, 82, 146, 0.24)" stroke-width="1.5"></path><path d="M1139.97 551.01L1306.21 557.37" stroke="rgba(112, 82, 146, 0.24)" stroke-width="1.5"></path><path d="M1139.97 551.01L1252.12 687.67" stroke="rgba(112, 82, 146, 0.24)" stroke-width="1.5"></path><path d="M1139.97 551.01L975.2 679.72" stroke="rgba(112, 82, 146, 0.24)" stroke-width="1.5"></path><path d="M1118.15 663.07L1118.15 663.07" stroke="rgba(112, 82, 146, 0.24)" stroke-width="1.5"></path><path d="M1118.15 663.07L1252.12 687.67" stroke="rgba(112, 82, 146, 0.24)" stroke-width="1.5"></path><path d="M1243.35 -70.05L1243.35 -70.05" stroke="rgba(112, 82, 146, 0.24)" stroke-width="1.5"></path><path d="M1243.35 -70.05L1243.4 112.23" stroke="rgba(112, 82, 146, 0.24)" stroke-width="1.5"></path><path d="M1243.4 112.23L1243.4 112.23" stroke="rgba(112, 82, 146, 0.24)" stroke-width="1.5"></path><path d="M1243.4 112.23L1263.24 199.84" stroke="rgba(112, 82, 146, 0.24)" stroke-width="1.5"></path><path d="M1243.4 112.23L1388.94 58.71" stroke="rgba(112, 82, 146, 0.24)" stroke-width="1.5"></path><path d="M1263.24 199.84L1263.24 199.84" stroke="rgba(112, 82, 146, 0.24)" stroke-width="1.5"></path><path d="M1263.24 199.84L1412.09 210.75" stroke="rgba(112, 82, 146, 0.24)" stroke-width="1.5"></path><path d="M1263.24 199.84L1276.22 365.92" stroke="rgba(112, 82, 146, 0.24)" stroke-width="1.5"></path><path d="M1263.24 199.84L1388.94 58.71" stroke="rgba(112, 82, 146, 0.24)" stroke-width="1.5"></path><path d="M1263.24 199.84L1113.25 65.75" stroke="rgba(112, 82, 146, 0.24)" stroke-width="1.5"></path><path d="M1276.22 365.92L1276.22 365.92" stroke="rgba(112, 82, 146, 0.24)" stroke-width="1.5"></path><path d="M1276.22 365.92L1437.93 352.31" stroke="rgba(112, 82, 146, 0.24)" stroke-width="1.5"></path><path d="M1276.22 365.92L1099.94 342.3" stroke="rgba(112, 82, 146, 0.24)" stroke-width="1.5"></path><path d="M1276.22 365.92L1306.21 557.37" stroke="rgba(112, 82, 146, 0.24)" stroke-width="1.5"></path><path d="M1306.21 557.37L1306.21 557.37" stroke="rgba(112, 82, 146, 0.24)" stroke-width="1.5"></path><path d="M1306.21 557.37L1252.12 687.67" stroke="rgba(112, 82, 146, 0.24)" stroke-width="1.5"></path><path d="M1306.21 557.37L1457.64 558.14" stroke="rgba(112, 82, 146, 0.24)" stroke-width="1.5"></path><path d="M1306.21 557.37L1444.47 642.73" stroke="rgba(112, 82, 146, 0.24)" stroke-width="1.5"></path><path d="M1252.12 687.67L1252.12 687.67" stroke="rgba(112, 82, 146, 0.24)" stroke-width="1.5"></path><path d="M1429.02 -59.11L1429.02 -59.11" stroke="rgba(112, 82, 146, 0.24)" stroke-width="1.5"></path><path d="M1429.02 -59.11L1388.94 58.71" stroke="rgba(112, 82, 146, 0.24)" stroke-width="1.5"></path><path d="M1429.02 -59.11L1591.02 -91.79" stroke="rgba(112, 82, 146, 0.24)" stroke-width="1.5"></path><path d="M1429.02 -59.11L1243.35 -70.05" stroke="rgba(112, 82, 146, 0.24)" stroke-width="1.5"></path><path d="M1429.02 -59.11L1599.25 100.44" stroke="rgba(112, 82, 146, 0.24)" stroke-width="1.5"></path><path d="M1429.02 -59.11L1243.4 112.23" stroke="rgba(112, 82, 146, 0.24)" stroke-width="1.5"></path><path d="M1429.02 -59.11L1412.09 210.75" stroke="rgba(112, 82, 146, 0.24)" stroke-width="1.5"></path><path d="M1388.94 58.71L1388.94 58.71" stroke="rgba(112, 82, 146, 0.24)" stroke-width="1.5"></path><path d="M1388.94 58.71L1412.09 210.75" stroke="rgba(112, 82, 146, 0.24)" stroke-width="1.5"></path><path d="M1388.94 58.71L1243.35 -70.05" stroke="rgba(112, 82, 146, 0.24)" stroke-width="1.5"></path><path d="M1412.09 210.75L1412.09 210.75" stroke="rgba(112, 82, 146, 0.24)" stroke-width="1.5"></path><path d="M1412.09 210.75L1437.93 352.31" stroke="rgba(112, 82, 146, 0.24)" stroke-width="1.5"></path><path d="M1412.09 210.75L1592.36 227.88" stroke="rgba(112, 82, 146, 0.24)" stroke-width="1.5"></path><path d="M1437.93 352.31L1437.93 352.31" stroke="rgba(112, 82, 146, 0.24)" stroke-width="1.5"></path><path d="M1437.93 352.31L1592.36 227.88" stroke="rgba(112, 82, 146, 0.24)" stroke-width="1.5"></path><path d="M1437.93 352.31L1457.64 558.14" stroke="rgba(112, 82, 146, 0.24)" stroke-width="1.5"></path><path d="M1437.93 352.31L1574.18 521.11" stroke="rgba(112, 82, 146, 0.24)" stroke-width="1.5"></path><path d="M1437.93 352.31L1263.24 199.84" stroke="rgba(112, 82, 146, 0.24)" stroke-width="1.5"></path><path d="M1457.64 558.14L1457.64 558.14" stroke="rgba(112, 82, 146, 0.24)" stroke-width="1.5"></path><path d="M1457.64 558.14L1444.47 642.73" stroke="rgba(112, 82, 146, 0.24)" stroke-width="1.5"></path><path d="M1457.64 558.14L1574.18 521.11" stroke="rgba(112, 82, 146, 0.24)" stroke-width="1.5"></path><path d="M1444.47 642.73L1444.47 642.73" stroke="rgba(112, 82, 146, 0.24)" stroke-width="1.5"></path><path d="M1444.47 642.73L1554.18 682.07" stroke="rgba(112, 82, 146, 0.24)" stroke-width="1.5"></path><path d="M1444.47 642.73L1574.18 521.11" stroke="rgba(112, 82, 146, 0.24)" stroke-width="1.5"></path><path d="M1444.47 642.73L1252.12 687.67" stroke="rgba(112, 82, 146, 0.24)" stroke-width="1.5"></path><path d="M1591.02 -91.79L1591.02 -91.79" stroke="rgba(112, 82, 146, 0.24)" stroke-width="1.5"></path><path d="M1591.02 -91.79L1599.25 100.44" stroke="rgba(112, 82, 146, 0.24)" stroke-width="1.5"></path><path d="M1591.02 -91.79L1388.94 58.71" stroke="rgba(112, 82, 146, 0.24)" stroke-width="1.5"></path><path d="M1591.02 -91.79L1592.36 227.88" stroke="rgba(112, 82, 146, 0.24)" stroke-width="1.5"></path><path d="M1591.02 -91.79L1243.35 -70.05" stroke="rgba(112, 82, 146, 0.24)" stroke-width="1.5"></path><path d="M1599.25 100.44L1599.25 100.44" stroke="rgba(112, 82, 146, 0.24)" stroke-width="1.5"></path><path d="M1599.25 100.44L1592.36 227.88" stroke="rgba(112, 82, 146, 0.24)" stroke-width="1.5"></path><path d="M1599.25 100.44L1388.94 58.71" stroke="rgba(112, 82, 146, 0.24)" stroke-width="1.5"></path><path d="M1592.36 227.88L1592.36 227.88" stroke="rgba(112, 82, 146, 0.24)" stroke-width="1.5"></path><path d="M1592.36 227.88L1388.94 58.71" stroke="rgba(112, 82, 146, 0.24)" stroke-width="1.5"></path><path d="M1574.18 521.11L1574.18 521.11" stroke="rgba(112, 82, 146, 0.24)" stroke-width="1.5"></path><path d="M1574.18 521.11L1554.18 682.07" stroke="rgba(112, 82, 146, 0.24)" stroke-width="1.5"></path><path d="M1554.18 682.07L1554.18 682.07" stroke="rgba(112, 82, 146, 0.24)" stroke-width="1.5"></path><path d="M1554.18 682.07L1457.64 558.14" stroke="rgba(112, 82, 146, 0.24)" stroke-width="1.5"></path><circle r="5" cx="-44.95" cy="556.69" fill="rgba(112, 82, 146, 0.24)"></circle><circle r="5" cx="-64.05" cy="686.54" fill="rgba(112, 82, 146, 0.24)"></circle><circle r="5" cx="92.44" cy="392.07" fill="rgba(112, 82, 146, 0.24)"></circle><circle r="5" cx="96.1" cy="661.88" fill="rgba(112, 82, 146, 0.24)"></circle><circle r="5" cx="226.77" cy="365.58" fill="rgba(112, 82, 146, 0.24)"></circle><circle r="5" cx="259.13" cy="517.53" fill="rgba(112, 82, 146, 0.24)"></circle><circle r="5" cx="211.15" cy="649.91" fill="rgba(112, 82, 146, 0.24)"></circle><circle r="5" cx="354.27" cy="352.43" fill="rgba(112, 82, 146, 0.24)"></circle><circle r="5" cx="362.61" cy="515.56" fill="rgba(112, 82, 146, 0.24)"></circle><circle r="5" cx="409.84" cy="638.17" fill="rgba(112, 82, 146, 0.24)"></circle><circle r="5" cx="503.74" cy="382.09" fill="rgba(112, 82, 146, 0.24)"></circle><circle r="5" cx="496.91" cy="525.64" fill="rgba(112, 82, 146, 0.24)"></circle><circle r="5" cx="534.36" cy="697.16" fill="rgba(112, 82, 146, 0.24)"></circle><circle r="5" cx="692.23" cy="255.53" fill="rgba(112, 82, 146, 0.24)"></circle><circle r="5" cx="677.05" cy="532.97" fill="rgba(112, 82, 146, 0.24)"></circle><circle r="5" cx="827.48" cy="211.35" fill="rgba(112, 82, 146, 0.24)"></circle><circle r="5" cx="815.56" cy="409.35" fill="rgba(112, 82, 146, 0.24)"></circle><circle r="5" cx="838.9" cy="536.76" fill="rgba(112, 82, 146, 0.24)"></circle><circle r="5" cx="832.23" cy="706.08" fill="rgba(112, 82, 146, 0.24)"></circle><circle r="5" cx="973.25" cy="-72.2" fill="rgba(112, 82, 146, 0.24)"></circle><circle r="5" cx="963.33" cy="83.48" fill="rgba(112, 82, 146, 0.24)"></circle><circle r="5" cx="950.56" cy="217.25" fill="rgba(112, 82, 146, 0.24)"></circle><circle r="5" cx="943.57" cy="381.83" fill="rgba(112, 82, 146, 0.24)"></circle><circle r="5" cx="938.32" cy="502.48" fill="rgba(112, 82, 146, 0.24)"></circle><circle r="5" cx="975.2" cy="679.72" fill="rgba(112, 82, 146, 0.24)"></circle><circle r="5" cx="1134.96" cy="-72.84" fill="rgba(112, 82, 146, 0.24)"></circle><circle r="5" cx="1113.25" cy="65.75" fill="rgba(112, 82, 146, 0.24)"></circle><circle r="5" cx="1160.97" cy="198.15" fill="rgba(112, 82, 146, 0.24)"></circle><circle r="5" cx="1099.94" cy="342.3" fill="rgba(112, 82, 146, 0.24)"></circle><circle r="5" cx="1139.97" cy="551.01" fill="rgba(112, 82, 146, 0.24)"></circle><circle r="5" cx="1118.15" cy="663.07" fill="rgba(112, 82, 146, 0.24)"></circle><circle r="5" cx="1243.35" cy="-70.05" fill="rgba(112, 82, 146, 0.24)"></circle><circle r="5" cx="1243.4" cy="112.23" fill="rgba(112, 82, 146, 0.24)"></circle><circle r="5" cx="1263.24" cy="199.84" fill="rgba(112, 82, 146, 0.24)"></circle><circle r="5" cx="1276.22" cy="365.92" fill="rgba(112, 82, 146, 0.24)"></circle><circle r="5" cx="1306.21" cy="557.37" fill="rgba(112, 82, 146, 0.24)"></circle><circle r="5" cx="1252.12" cy="687.67" fill="rgba(112, 82, 146, 0.24)"></circle><circle r="5" cx="1429.02" cy="-59.11" fill="rgba(112, 82, 146, 0.24)"></circle><circle r="5" cx="1388.94" cy="58.71" fill="rgba(112, 82, 146, 0.24)"></circle><circle r="5" cx="1412.09" cy="210.75" fill="rgba(112, 82, 146, 0.24)"></circle><circle r="5" cx="1437.93" cy="352.31" fill="rgba(112, 82, 146, 0.24)"></circle><circle r="5" cx="1457.64" cy="558.14" fill="rgba(112, 82, 146, 0.24)"></circle><circle r="5" cx="1444.47" cy="642.73" fill="rgba(112, 82, 146, 0.24)"></circle><circle r="5" cx="1591.02" cy="-91.79" fill="rgba(112, 82, 146, 0.24)"></circle><circle r="5" cx="1599.25" cy="100.44" fill="rgba(112, 82, 146, 0.24)"></circle><circle r="5" cx="1592.36" cy="227.88" fill="rgba(112, 82, 146, 0.24)"></circle><circle r="5" cx="1574.18" cy="521.11" fill="rgba(112, 82, 146, 0.24)"></circle><circle r="5" cx="1554.18" cy="682.07" fill="rgba(112, 82, 146, 0.24)"></circle><path d="M96.53 505.91L96.53 505.91" stroke="hsla(268.1, 28.1%, 58.1%, 0.39)" stroke-width="1.5"></path><path d="M96.53 505.91L61.74 650.95" stroke="hsla(268.1, 28.1%, 58.1%, 0.39)" stroke-width="1.5"></path><path d="M96.53 505.91L-50.31 547.51" stroke="hsla(268.1, 28.1%, 58.1%, 0.39)" stroke-width="1.5"></path><path d="M61.74 650.95L61.74 650.95" stroke="hsla(268.1, 28.1%, 58.1%, 0.39)" stroke-width="1.5"></path><path d="M61.74 650.95L210.61 662.15" stroke="hsla(268.1, 28.1%, 58.1%, 0.39)" stroke-width="1.5"></path><path d="M814.79 382.32L814.79 382.32" stroke="hsla(268.1, 28.1%, 58.1%, 0.39)" stroke-width="1.5"></path><path d="M814.79 382.32L856.38 523.53" stroke="hsla(268.1, 28.1%, 58.1%, 0.39)" stroke-width="1.5"></path><path d="M814.79 382.32L967.56 379.4" stroke="hsla(268.1, 28.1%, 58.1%, 0.39)" stroke-width="1.5"></path><path d="M814.79 382.32L678.07 502.95" stroke="hsla(268.1, 28.1%, 58.1%, 0.39)" stroke-width="1.5"></path><path d="M814.79 382.32L970.81 553.45" stroke="hsla(268.1, 28.1%, 58.1%, 0.39)" stroke-width="1.5"></path><path d="M814.79 382.32L822.6 659.55" stroke="hsla(268.1, 28.1%, 58.1%, 0.39)" stroke-width="1.5"></path><path d="M814.79 382.32L673.88 655.68" stroke="hsla(268.1, 28.1%, 58.1%, 0.39)" stroke-width="1.5"></path><path d="M856.38 523.53L856.38 523.53" stroke="hsla(268.1, 28.1%, 58.1%, 0.39)" stroke-width="1.5"></path><path d="M856.38 523.53L970.81 553.45" stroke="hsla(268.1, 28.1%, 58.1%, 0.39)" stroke-width="1.5"></path><path d="M856.38 523.53L822.6 659.55" stroke="hsla(268.1, 28.1%, 58.1%, 0.39)" stroke-width="1.5"></path><path d="M856.38 523.53L678.07 502.95" stroke="hsla(268.1, 28.1%, 58.1%, 0.39)" stroke-width="1.5"></path><path d="M856.38 523.53L967.56 379.4" stroke="hsla(268.1, 28.1%, 58.1%, 0.39)" stroke-width="1.5"></path><path d="M856.38 523.53L959.98 707.9" stroke="hsla(268.1, 28.1%, 58.1%, 0.39)" stroke-width="1.5"></path><path d="M1240.24 562.11L1240.24 562.11" stroke="hsla(268.1, 28.1%, 58.1%, 0.39)" stroke-width="1.5"></path><path d="M1240.24 562.11L1301.59 670.57" stroke="hsla(268.1, 28.1%, 58.1%, 0.39)" stroke-width="1.5"></path><path d="M1240.24 562.11L1097.21 534.29" stroke="hsla(268.1, 28.1%, 58.1%, 0.39)" stroke-width="1.5"></path><path d="M1240.24 562.11L1249.91 387" stroke="hsla(268.1, 28.1%, 58.1%, 0.39)" stroke-width="1.5"></path><path d="M1240.24 562.11L1099.91 669.8" stroke="hsla(268.1, 28.1%, 58.1%, 0.39)" stroke-width="1.5"></path><path d="M1301.59 670.57L1301.59 670.57" stroke="hsla(268.1, 28.1%, 58.1%, 0.39)" stroke-width="1.5"></path><path d="M1301.59 670.57L1099.91 669.8" stroke="hsla(268.1, 28.1%, 58.1%, 0.39)" stroke-width="1.5"></path><path d="M1301.59 670.57L1458.26 533.42" stroke="hsla(268.1, 28.1%, 58.1%, 0.39)" stroke-width="1.5"></path><path d="M1301.59 670.57L1097.21 534.29" stroke="hsla(268.1, 28.1%, 58.1%, 0.39)" stroke-width="1.5"></path><path d="M1301.59 670.57L1568.26 641.37" stroke="hsla(268.1, 28.1%, 58.1%, 0.39)" stroke-width="1.5"></path><path d="M1605.59 260.22L1605.59 260.22" stroke="hsla(268.1, 28.1%, 58.1%, 0.39)" stroke-width="1.5"></path><path d="M1605.59 260.22L1598.87 382.93" stroke="hsla(268.1, 28.1%, 58.1%, 0.39)" stroke-width="1.5"></path><path d="M1605.59 260.22L1547.2 60.65" stroke="hsla(268.1, 28.1%, 58.1%, 0.39)" stroke-width="1.5"></path><path d="M1605.59 260.22L1417.72 412.31" stroke="hsla(268.1, 28.1%, 58.1%, 0.39)" stroke-width="1.5"></path><path d="M1605.59 260.22L1395.67 106.05" stroke="hsla(268.1, 28.1%, 58.1%, 0.39)" stroke-width="1.5"></path><path d="M-50.31 547.51L-50.31 547.51" stroke="hsla(268.1, 28.1%, 58.1%, 0.39)" stroke-width="1.5"></path><path d="M-50.31 547.51L-104.89 666.54" stroke="hsla(268.1, 28.1%, 58.1%, 0.39)" stroke-width="1.5"></path><path d="M-50.31 547.51L61.74 650.95" stroke="hsla(268.1, 28.1%, 58.1%, 0.39)" stroke-width="1.5"></path><path d="M-104.89 666.54L-104.89 666.54" stroke="hsla(268.1, 28.1%, 58.1%, 0.39)" stroke-width="1.5"></path><path d="M-104.89 666.54L61.74 650.95" stroke="hsla(268.1, 28.1%, 58.1%, 0.39)" stroke-width="1.5"></path><path d="M-104.89 666.54L96.53 505.91" stroke="hsla(268.1, 28.1%, 58.1%, 0.39)" stroke-width="1.5"></path><path d="M255.3 518.07L255.3 518.07" stroke="hsla(268.1, 28.1%, 58.1%, 0.39)" stroke-width="1.5"></path><path d="M255.3 518.07L339.97 541.79" stroke="hsla(268.1, 28.1%, 58.1%, 0.39)" stroke-width="1.5"></path><path d="M255.3 518.07L210.61 662.15" stroke="hsla(268.1, 28.1%, 58.1%, 0.39)" stroke-width="1.5"></path><path d="M255.3 518.07L346.31 647.16" stroke="hsla(268.1, 28.1%, 58.1%, 0.39)" stroke-width="1.5"></path><path d="M255.3 518.07L96.53 505.91" stroke="hsla(268.1, 28.1%, 58.1%, 0.39)" stroke-width="1.5"></path><path d="M255.3 518.07L61.74 650.95" stroke="hsla(268.1, 28.1%, 58.1%, 0.39)" stroke-width="1.5"></path><path d="M255.3 518.07L508.96 509.4" stroke="hsla(268.1, 28.1%, 58.1%, 0.39)" stroke-width="1.5"></path><path d="M210.61 662.15L210.61 662.15" stroke="hsla(268.1, 28.1%, 58.1%, 0.39)" stroke-width="1.5"></path><path d="M210.61 662.15L346.31 647.16" stroke="hsla(268.1, 28.1%, 58.1%, 0.39)" stroke-width="1.5"></path><path d="M339.97 541.79L339.97 541.79" stroke="hsla(268.1, 28.1%, 58.1%, 0.39)" stroke-width="1.5"></path><path d="M339.97 541.79L346.31 647.16" stroke="hsla(268.1, 28.1%, 58.1%, 0.39)" stroke-width="1.5"></path><path d="M339.97 541.79L508.96 509.4" stroke="hsla(268.1, 28.1%, 58.1%, 0.39)" stroke-width="1.5"></path><path d="M339.97 541.79L210.61 662.15" stroke="hsla(268.1, 28.1%, 58.1%, 0.39)" stroke-width="1.5"></path><path d="M339.97 541.79L547.32 653.01" stroke="hsla(268.1, 28.1%, 58.1%, 0.39)" stroke-width="1.5"></path><path d="M346.31 647.16L346.31 647.16" stroke="hsla(268.1, 28.1%, 58.1%, 0.39)" stroke-width="1.5"></path><path d="M346.31 647.16L547.32 653.01" stroke="hsla(268.1, 28.1%, 58.1%, 0.39)" stroke-width="1.5"></path><path d="M508.96 509.4L508.96 509.4" stroke="hsla(268.1, 28.1%, 58.1%, 0.39)" stroke-width="1.5"></path><path d="M508.96 509.4L547.32 653.01" stroke="hsla(268.1, 28.1%, 58.1%, 0.39)" stroke-width="1.5"></path><path d="M508.96 509.4L678.07 502.95" stroke="hsla(268.1, 28.1%, 58.1%, 0.39)" stroke-width="1.5"></path><path d="M547.32 653.01L547.32 653.01" stroke="hsla(268.1, 28.1%, 58.1%, 0.39)" stroke-width="1.5"></path><path d="M547.32 653.01L673.88 655.68" stroke="hsla(268.1, 28.1%, 58.1%, 0.39)" stroke-width="1.5"></path><path d="M547.32 653.01L678.07 502.95" stroke="hsla(268.1, 28.1%, 58.1%, 0.39)" stroke-width="1.5"></path><path d="M547.32 653.01L822.6 659.55" stroke="hsla(268.1, 28.1%, 58.1%, 0.39)" stroke-width="1.5"></path><path d="M678.07 502.95L678.07 502.95" stroke="hsla(268.1, 28.1%, 58.1%, 0.39)" stroke-width="1.5"></path><path d="M678.07 502.95L673.88 655.68" stroke="hsla(268.1, 28.1%, 58.1%, 0.39)" stroke-width="1.5"></path><path d="M673.88 655.68L673.88 655.68" stroke="hsla(268.1, 28.1%, 58.1%, 0.39)" stroke-width="1.5"></path><path d="M673.88 655.68L822.6 659.55" stroke="hsla(268.1, 28.1%, 58.1%, 0.39)" stroke-width="1.5"></path><path d="M673.88 655.68L508.96 509.4" stroke="hsla(268.1, 28.1%, 58.1%, 0.39)" stroke-width="1.5"></path><path d="M822.6 659.55L822.6 659.55" stroke="hsla(268.1, 28.1%, 58.1%, 0.39)" stroke-width="1.5"></path><path d="M822.6 659.55L959.98 707.9" stroke="hsla(268.1, 28.1%, 58.1%, 0.39)" stroke-width="1.5"></path><path d="M822.6 659.55L970.81 553.45" stroke="hsla(268.1, 28.1%, 58.1%, 0.39)" stroke-width="1.5"></path><path d="M822.6 659.55L678.07 502.95" stroke="hsla(268.1, 28.1%, 58.1%, 0.39)" stroke-width="1.5"></path><path d="M967.56 379.4L967.56 379.4" stroke="hsla(268.1, 28.1%, 58.1%, 0.39)" stroke-width="1.5"></path><path d="M970.81 553.45L970.81 553.45" stroke="hsla(268.1, 28.1%, 58.1%, 0.39)" stroke-width="1.5"></path><path d="M970.81 553.45L1097.21 534.29" stroke="hsla(268.1, 28.1%, 58.1%, 0.39)" stroke-width="1.5"></path><path d="M970.81 553.45L959.98 707.9" stroke="hsla(268.1, 28.1%, 58.1%, 0.39)" stroke-width="1.5"></path><path d="M970.81 553.45L1099.91 669.8" stroke="hsla(268.1, 28.1%, 58.1%, 0.39)" stroke-width="1.5"></path><path d="M959.98 707.9L959.98 707.9" stroke="hsla(268.1, 28.1%, 58.1%, 0.39)" stroke-width="1.5"></path><path d="M959.98 707.9L1099.91 669.8" stroke="hsla(268.1, 28.1%, 58.1%, 0.39)" stroke-width="1.5"></path><path d="M959.98 707.9L1097.21 534.29" stroke="hsla(268.1, 28.1%, 58.1%, 0.39)" stroke-width="1.5"></path><path d="M959.98 707.9L673.88 655.68" stroke="hsla(268.1, 28.1%, 58.1%, 0.39)" stroke-width="1.5"></path><path d="M1144.7 85.86L1144.7 85.86" stroke="hsla(268.1, 28.1%, 58.1%, 0.39)" stroke-width="1.5"></path><path d="M1144.7 85.86L1154.54 229.97" stroke="hsla(268.1, 28.1%, 58.1%, 0.39)" stroke-width="1.5"></path><path d="M1144.7 85.86L1310.32 110.65" stroke="hsla(268.1, 28.1%, 58.1%, 0.39)" stroke-width="1.5"></path><path d="M1144.7 85.86L1263.46 246.69" stroke="hsla(268.1, 28.1%, 58.1%, 0.39)" stroke-width="1.5"></path><path d="M1154.54 229.97L1154.54 229.97" stroke="hsla(268.1, 28.1%, 58.1%, 0.39)" stroke-width="1.5"></path><path d="M1154.54 229.97L1263.46 246.69" stroke="hsla(268.1, 28.1%, 58.1%, 0.39)" stroke-width="1.5"></path><path d="M1154.54 229.97L1249.91 387" stroke="hsla(268.1, 28.1%, 58.1%, 0.39)" stroke-width="1.5"></path><path d="M1154.54 229.97L1310.32 110.65" stroke="hsla(268.1, 28.1%, 58.1%, 0.39)" stroke-width="1.5"></path><path d="M1154.54 229.97L967.56 379.4" stroke="hsla(268.1, 28.1%, 58.1%, 0.39)" stroke-width="1.5"></path><path d="M1097.21 534.29L1097.21 534.29" stroke="hsla(268.1, 28.1%, 58.1%, 0.39)" stroke-width="1.5"></path><path d="M1097.21 534.29L1099.91 669.8" stroke="hsla(268.1, 28.1%, 58.1%, 0.39)" stroke-width="1.5"></path><path d="M1097.21 534.29L967.56 379.4" stroke="hsla(268.1, 28.1%, 58.1%, 0.39)" stroke-width="1.5"></path><path d="M1097.21 534.29L1249.91 387" stroke="hsla(268.1, 28.1%, 58.1%, 0.39)" stroke-width="1.5"></path><path d="M1099.91 669.8L1099.91 669.8" stroke="hsla(268.1, 28.1%, 58.1%, 0.39)" stroke-width="1.5"></path><path d="M1310.32 110.65L1310.32 110.65" stroke="hsla(268.1, 28.1%, 58.1%, 0.39)" stroke-width="1.5"></path><path d="M1310.32 110.65L1395.67 106.05" stroke="hsla(268.1, 28.1%, 58.1%, 0.39)" stroke-width="1.5"></path><path d="M1310.32 110.65L1263.46 246.69" stroke="hsla(268.1, 28.1%, 58.1%, 0.39)" stroke-width="1.5"></path><path d="M1310.32 110.65L1434.34 -86.23" stroke="hsla(268.1, 28.1%, 58.1%, 0.39)" stroke-width="1.5"></path><path d="M1263.46 246.69L1263.46 246.69" stroke="hsla(268.1, 28.1%, 58.1%, 0.39)" stroke-width="1.5"></path><path d="M1263.46 246.69L1249.91 387" stroke="hsla(268.1, 28.1%, 58.1%, 0.39)" stroke-width="1.5"></path><path d="M1263.46 246.69L1395.67 106.05" stroke="hsla(268.1, 28.1%, 58.1%, 0.39)" stroke-width="1.5"></path><path d="M1249.91 387L1249.91 387" stroke="hsla(268.1, 28.1%, 58.1%, 0.39)" stroke-width="1.5"></path><path d="M1249.91 387L1417.72 412.31" stroke="hsla(268.1, 28.1%, 58.1%, 0.39)" stroke-width="1.5"></path><path d="M1434.34 -86.23L1434.34 -86.23" stroke="hsla(268.1, 28.1%, 58.1%, 0.39)" stroke-width="1.5"></path><path d="M1434.34 -86.23L1555.76 -66.02" stroke="hsla(268.1, 28.1%, 58.1%, 0.39)" stroke-width="1.5"></path><path d="M1434.34 -86.23L1547.2 60.65" stroke="hsla(268.1, 28.1%, 58.1%, 0.39)" stroke-width="1.5"></path><path d="M1434.34 -86.23L1395.67 106.05" stroke="hsla(268.1, 28.1%, 58.1%, 0.39)" stroke-width="1.5"></path><path d="M1434.34 -86.23L1144.7 85.86" stroke="hsla(268.1, 28.1%, 58.1%, 0.39)" stroke-width="1.5"></path><path d="M1434.34 -86.23L1263.46 246.69" stroke="hsla(268.1, 28.1%, 58.1%, 0.39)" stroke-width="1.5"></path><path d="M1395.67 106.05L1395.67 106.05" stroke="hsla(268.1, 28.1%, 58.1%, 0.39)" stroke-width="1.5"></path><path d="M1395.67 106.05L1547.2 60.65" stroke="hsla(268.1, 28.1%, 58.1%, 0.39)" stroke-width="1.5"></path><path d="M1417.72 412.31L1417.72 412.31" stroke="hsla(268.1, 28.1%, 58.1%, 0.39)" stroke-width="1.5"></path><path d="M1417.72 412.31L1458.26 533.42" stroke="hsla(268.1, 28.1%, 58.1%, 0.39)" stroke-width="1.5"></path><path d="M1417.72 412.31L1598.87 382.93" stroke="hsla(268.1, 28.1%, 58.1%, 0.39)" stroke-width="1.5"></path><path d="M1417.72 412.31L1263.46 246.69" stroke="hsla(268.1, 28.1%, 58.1%, 0.39)" stroke-width="1.5"></path><path d="M1417.72 412.31L1240.24 562.11" stroke="hsla(268.1, 28.1%, 58.1%, 0.39)" stroke-width="1.5"></path><path d="M1458.26 533.42L1458.26 533.42" stroke="hsla(268.1, 28.1%, 58.1%, 0.39)" stroke-width="1.5"></path><path d="M1458.26 533.42L1606.04 561.78" stroke="hsla(268.1, 28.1%, 58.1%, 0.39)" stroke-width="1.5"></path><path d="M1555.76 -66.02L1555.76 -66.02" stroke="hsla(268.1, 28.1%, 58.1%, 0.39)" stroke-width="1.5"></path><path d="M1555.76 -66.02L1547.2 60.65" stroke="hsla(268.1, 28.1%, 58.1%, 0.39)" stroke-width="1.5"></path><path d="M1555.76 -66.02L1395.67 106.05" stroke="hsla(268.1, 28.1%, 58.1%, 0.39)" stroke-width="1.5"></path><path d="M1555.76 -66.02L1310.32 110.65" stroke="hsla(268.1, 28.1%, 58.1%, 0.39)" stroke-width="1.5"></path><path d="M1547.2 60.65L1547.2 60.65" stroke="hsla(268.1, 28.1%, 58.1%, 0.39)" stroke-width="1.5"></path><path d="M1598.87 382.93L1598.87 382.93" stroke="hsla(268.1, 28.1%, 58.1%, 0.39)" stroke-width="1.5"></path><path d="M1598.87 382.93L1606.04 561.78" stroke="hsla(268.1, 28.1%, 58.1%, 0.39)" stroke-width="1.5"></path><path d="M1598.87 382.93L1458.26 533.42" stroke="hsla(268.1, 28.1%, 58.1%, 0.39)" stroke-width="1.5"></path><path d="M1598.87 382.93L1568.26 641.37" stroke="hsla(268.1, 28.1%, 58.1%, 0.39)" stroke-width="1.5"></path><path d="M1606.04 561.78L1606.04 561.78" stroke="hsla(268.1, 28.1%, 58.1%, 0.39)" stroke-width="1.5"></path><path d="M1606.04 561.78L1568.26 641.37" stroke="hsla(268.1, 28.1%, 58.1%, 0.39)" stroke-width="1.5"></path><path d="M1568.26 641.37L1568.26 641.37" stroke="hsla(268.1, 28.1%, 58.1%, 0.39)" stroke-width="1.5"></path><path d="M1568.26 641.37L1458.26 533.42" stroke="hsla(268.1, 28.1%, 58.1%, 0.39)" stroke-width="1.5"></path><path d="M1568.26 641.37L1417.72 412.31" stroke="hsla(268.1, 28.1%, 58.1%, 0.39)" stroke-width="1.5"></path><path d="M1568.26 641.37L1240.24 562.11" stroke="hsla(268.1, 28.1%, 58.1%, 0.39)" stroke-width="1.5"></path><circle r="25" cx="96.53" cy="505.91" fill="url(&quot;#SvgjsRadialGradient1005&quot;)"></circle><circle r="25" cx="61.74" cy="650.95" fill="url(&quot;#SvgjsRadialGradient1005&quot;)"></circle><circle r="25" cx="814.79" cy="382.32" fill="url(&quot;#SvgjsRadialGradient1005&quot;)"></circle><circle r="25" cx="856.38" cy="523.53" fill="url(&quot;#SvgjsRadialGradient1005&quot;)"></circle><circle r="25" cx="1240.24" cy="562.11" fill="url(&quot;#SvgjsRadialGradient1005&quot;)"></circle><circle r="25" cx="1301.59" cy="670.57" fill="url(&quot;#SvgjsRadialGradient1005&quot;)"></circle><circle r="25" cx="1605.59" cy="260.22" fill="url(&quot;#SvgjsRadialGradient1005&quot;)"></circle><circle r="5" cx="-50.31" cy="547.51" fill="rgba(227, 221, 234, 0.6950000000000001)"></circle><circle r="5" cx="-104.89" cy="666.54" fill="rgba(227, 221, 234, 0.6950000000000001)"></circle><circle r="5" cx="255.3" cy="518.07" fill="rgba(227, 221, 234, 0.6950000000000001)"></circle><circle r="5" cx="210.61" cy="662.15" fill="rgba(227, 221, 234, 0.6950000000000001)"></circle><circle r="5" cx="339.97" cy="541.79" fill="rgba(227, 221, 234, 0.6950000000000001)"></circle><circle r="5" cx="346.31" cy="647.16" fill="rgba(227, 221, 234, 0.6950000000000001)"></circle><circle r="5" cx="508.96" cy="509.4" fill="rgba(227, 221, 234, 0.6950000000000001)"></circle><circle r="5" cx="547.32" cy="653.01" fill="rgba(227, 221, 234, 0.6950000000000001)"></circle><circle r="5" cx="678.07" cy="502.95" fill="rgba(227, 221, 234, 0.6950000000000001)"></circle><circle r="5" cx="673.88" cy="655.68" fill="rgba(227, 221, 234, 0.6950000000000001)"></circle><circle r="5" cx="822.6" cy="659.55" fill="rgba(227, 221, 234, 0.6950000000000001)"></circle><circle r="5" cx="967.56" cy="379.4" fill="rgba(227, 221, 234, 0.6950000000000001)"></circle><circle r="5" cx="970.81" cy="553.45" fill="rgba(227, 221, 234, 0.6950000000000001)"></circle><circle r="5" cx="959.98" cy="707.9" fill="rgba(227, 221, 234, 0.6950000000000001)"></circle><circle r="5" cx="1144.7" cy="85.86" fill="rgba(227, 221, 234, 0.6950000000000001)"></circle><circle r="5" cx="1154.54" cy="229.97" fill="rgba(227, 221, 234, 0.6950000000000001)"></circle><circle r="5" cx="1097.21" cy="534.29" fill="rgba(227, 221, 234, 0.6950000000000001)"></circle><circle r="5" cx="1099.91" cy="669.8" fill="rgba(227, 221, 234, 0.6950000000000001)"></circle><circle r="5" cx="1310.32" cy="110.65" fill="rgba(227, 221, 234, 0.6950000000000001)"></circle><circle r="5" cx="1263.46" cy="246.69" fill="rgba(227, 221, 234, 0.6950000000000001)"></circle><circle r="5" cx="1249.91" cy="387" fill="rgba(227, 221, 234, 0.6950000000000001)"></circle><circle r="5" cx="1434.34" cy="-86.23" fill="rgba(227, 221, 234, 0.6950000000000001)"></circle><circle r="5" cx="1395.67" cy="106.05" fill="rgba(227, 221, 234, 0.6950000000000001)"></circle><circle r="5" cx="1417.72" cy="412.31" fill="rgba(227, 221, 234, 0.6950000000000001)"></circle><circle r="5" cx="1458.26" cy="533.42" fill="rgba(227, 221, 234, 0.6950000000000001)"></circle><circle r="5" cx="1555.76" cy="-66.02" fill="rgba(227, 221, 234, 0.6950000000000001)"></circle><circle r="5" cx="1547.2" cy="60.65" fill="rgba(227, 221, 234, 0.6950000000000001)"></circle><circle r="5" cx="1598.87" cy="382.93" fill="rgba(227, 221, 234, 0.6950000000000001)"></circle><circle r="5" cx="1606.04" cy="561.78" fill="rgba(227, 221, 234, 0.6950000000000001)"></circle><circle r="5" cx="1568.26" cy="641.37" fill="rgba(227, 221, 234, 0.6950000000000001)"></circle></g><defs><mask id="SvgjsMask1004"><rect width="1440" height="574" fill="#ffffff"></rect></mask><radialGradient id="SvgjsRadialGradient1005"><stop stop-color="#ffffff" offset="0.1"></stop><stop stop-color="rgba(112, 82, 146, 0.39)" offset="0.2"></stop><stop stop-color="rgba(112, 82, 146, 0)" offset="1"></stop></radialGradient></defs></svg>